<?xml version="1.0" encoding="utf-8"?>
<!-- Generator: Adobe Illustrator 18.0.0, SVG Export Plug-In . SVG Version: 6.00 Build 0)  -->
<!DOCTYPE svg PUBLIC "-//W3C//DTD SVG 1.1//EN" "http://www.w3.org/Graphics/SVG/1.1/DTD/svg11.dtd">
<svg version="1.1" id="Layer_1" xmlns="http://www.w3.org/2000/svg" xmlns:xlink="http://www.w3.org/1999/xlink" x="0px" y="0px"
	 viewBox="0 0 500 500" enable-background="new 0 0 500 500" xml:space="preserve">
<g>
	<path fill-rule="evenodd" clip-rule="evenodd" fill="#2164F3" d="M223,382.4V258.6c3.5,0.3,6.9,0.5,10.4,0.5
		c16.8,0,32.6-4.5,46.1-12.6v135.9c0,11.6-2.7,20.2-7.9,25.9c-5.2,5.7-12.1,8.6-20.5,8.6c-8.2,0-14.8-2.9-20.2-8.7
		C225.7,402.4,223,393.8,223,382.4L223,382.4z"/>
	<g>
		<path fill-rule="evenodd" clip-rule="evenodd" fill="#2164F3" d="M223.4,85.8c35-12.6,74.8-11.9,104.8,14
			c5.5,5.2,11.9,11.8,14.5,19.5c3,9.8-10.6-1-12.4-2.4c-9.8-6.4-19.5-11.8-30.4-15.5C240.9,83.2,185.2,116,150.5,167
			c-14.5,22.5-23.9,46.2-31.6,72.3c-0.8,2.9-1.5,6.6-3,9.1c-1.5,2.9-0.7-7.7-0.7-8.1c1.2-10.8,3.4-21.2,6.1-31.6
			C137.3,153.2,172.6,106.9,223.4,85.8z"/>
		<path fill-rule="evenodd" clip-rule="evenodd" fill="#2164F3" d="M268.9,223.5c-21,10.8-46.8,2.4-57.3-18.7
			c-10.8-21-2.4-46.8,18.7-57.3c21-10.8,46.8-2.4,57.3,18.7C298.4,187.2,290,212.9,268.9,223.5z"/>
	</g>
</g>
</svg>
